<?xml version="1.0" standalone="no"?>
<!DOCTYPE svg PUBLIC "-//W3C//DTD SVG 20010904//EN"
 "http://www.w3.org/TR/2001/REC-SVG-20010904/DTD/svg10.dtd">
<svg version="1.0" xmlns="http://www.w3.org/2000/svg"
 width="512.000000pt" height="512.000000pt" viewBox="0 0 512.000000 512.000000"
 preserveAspectRatio="xMidYMid meet">

<g transform="translate(0.000000,512.000000) scale(0.100000,-0.100000)"
fill="#000000" stroke="none">
<path d="M2280 5009 c-293 -34 -548 -109 -819 -242 -141 -69 -342 -195 -444
-279 -415 -340 -698 -766 -837 -1258 -50 -177 -90 -455 -90 -615 1 -99 17 -41
24 87 18 318 91 587 241 893 130 268 266 458 470 660 370 368 846 603 1376
680 147 21 512 20 662 -1 142 -20 384 -81 513 -129 476 -178 875 -498 1165
-934 188 -282 306 -587 366 -946 25 -150 25 -562 -1 -710 -41 -244 -115 -474
-221 -690 -314 -640 -892 -1108 -1585 -1285 -324 -83 -744 -92 -1080 -24 -364
74 -759 261 -1056 500 -128 103 -127 100 -46 107 37 4 92 3 122 -2 79 -13 669
-217 851 -294 196 -83 239 -97 315 -104 68 -6 93 0 291 77 67 27 181 65 255
85 73 20 201 63 283 95 83 31 175 65 205 75 93 30 142 61 210 130 110 113 308
286 455 399 233 178 255 196 255 211 0 8 -4 15 -8 15 -4 0 -14 16 -21 36 -17
48 -62 74 -127 74 -28 0 -71 7 -94 15 -60 21 -107 19 -168 -10 -50 -23 -56
-24 -82 -10 -54 28 -153 12 -201 -31 -15 -13 -20 -12 -54 11 -21 14 -52 25
-70 25 -18 0 -54 10 -81 22 -46 21 -69 22 -398 29 -192 4 -372 11 -399 14 -27
4 -121 27 -210 51 -246 68 -310 76 -562 77 -229 0 -441 -20 -671 -64 -141 -27
-220 -56 -518 -193 -136 -63 -76 -50 90 20 313 130 400 150 792 180 227 18
432 13 561 -12 42 -7 159 -38 261 -66 l185 -53 240 0 c132 0 320 4 419 9 132
6 177 6 172 -3 -4 -6 -18 -11 -32 -11 -14 0 -34 -5 -44 -10 -18 -9 -19 -19
-14 -108 9 -159 8 -158 112 -144 75 10 72 0 -5 -21 -98 -28 -293 -39 -618 -35
-303 3 -311 2 -363 -20 -64 -27 -219 -125 -206 -129 5 -2 48 12 94 31 47 19
86 33 87 32 1 -1 8 -33 17 -72 8 -39 24 -104 36 -143 18 -61 24 -70 36 -60 28
23 18 113 -21 192 -19 39 -35 76 -35 83 0 7 15 16 33 19 30 5 607 3 607 -2 0
-2 -16 -24 -36 -49 -19 -26 -44 -64 -54 -84 -17 -33 -27 -40 -72 -51 -74 -18
-129 -16 -233 8 -99 23 -170 35 -163 27 3 -2 52 -18 109 -35 148 -42 206 -46
309 -20 88 23 392 91 407 91 4 0 14 -13 21 -30 17 -37 35 -40 22 -4 -6 14 -10
31 -10 37 0 7 57 55 127 107 70 52 147 110 172 129 25 19 88 78 139 132 54 57
111 106 135 118 46 22 121 28 132 11 4 -6 -14 -33 -39 -61 -51 -57 -61 -83
-53 -137 6 -31 2 -40 -23 -62 -16 -14 -87 -75 -158 -137 -71 -62 -164 -153
-206 -204 -88 -103 -79 -98 -356 -202 -470 -178 -610 -232 -665 -258 -74 -36
-88 -41 305 97 694 243 649 225 707 288 27 28 100 100 163 161 321 307 417
420 406 477 -6 31 4 35 51 17 29 -11 83 -57 83 -70 0 -5 -19 -17 -42 -27 -62
-27 -131 -98 -124 -125 4 -19 -13 -34 -117 -107 -134 -93 -232 -175 -377 -315
-106 -103 -128 -116 -285 -170 -60 -21 -162 -59 -225 -85 -63 -27 -171 -63
-240 -81 -99 -26 -157 -49 -276 -110 l-151 -78 -64 9 c-85 12 -113 23 -319
123 -172 84 -463 204 -650 268 -120 41 -236 49 -337 25 -110 -27 -110 -24 -7
-123 467 -452 1155 -700 1817 -655 204 14 306 30 487 79 313 83 600 222 855
413 134 100 382 349 481 482 250 335 412 723 476 1138 20 132 17 598 -5 725
-93 532 -312 972 -667 1339 -292 302 -622 511 -1010 640 -274 91 -502 127
-798 125 -103 -1 -221 -5 -262 -10z m1083 -3408 c44 -17 67 -51 67 -99 0 -36
-6 -50 -33 -77 -37 -37 -114 -58 -189 -53 l-43 3 -6 85 c-4 47 -10 94 -14 106
-5 15 -1 23 17 31 28 14 168 16 201 4z m266 3 c17 -4 31 -12 31 -19 0 -16
-169 -177 -230 -218 -25 -17 -74 -55 -110 -85 -99 -84 -164 -123 -237 -143
-92 -26 -105 -24 -67 9 138 120 155 131 215 148 34 10 94 39 134 65 81 54 99
84 93 161 l-3 42 55 23 c60 24 72 26 119 17z m341 -9 c15 -18 -11 -60 -87
-140 l-48 -50 -3 28 c-4 29 28 91 74 146 29 34 45 38 64 16z m180 -100 c0 -10
-162 -125 -176 -125 -22 0 -17 14 19 46 60 57 102 84 130 84 15 0 27 -2 27 -5z
m-1105 -283 c-34 -31 -68 -67 -75 -80 -10 -15 -34 -28 -74 -38 -32 -8 -60 -13
-63 -10 -6 6 83 120 117 151 19 17 70 30 135 34 15 0 4 -15 -40 -57z"/>
<path d="M1020 4024 c0 -146 4 -263 11 -289 15 -60 67 -117 131 -146 45 -19
69 -23 158 -23 160 1 234 36 278 133 25 54 26 63 30 313 l5 258 -92 0 -91 0
-1 -237 c0 -157 -4 -250 -12 -273 -26 -76 -152 -94 -209 -31 l-28 31 0 255 0
255 -90 0 -90 0 0 -246z"/>
<path d="M1750 3915 l0 -355 90 0 90 0 0 145 0 145 150 0 150 0 0 70 0 70
-150 0 -150 0 0 70 0 70 165 0 165 0 0 70 0 70 -255 0 -255 0 0 -355z"/>
<path d="M2472 4101 c-29 -10 -64 -29 -78 -42 -31 -29 -64 -90 -64 -119 0 -19
6 -20 85 -20 78 0 85 2 85 20 0 11 9 29 20 40 43 43 110 10 110 -55 l0 -35
-48 0 c-63 0 -159 -25 -199 -53 -146 -100 -52 -297 130 -273 59 8 101 28 112
53 7 14 10 11 14 -17 l6 -35 86 -3 86 -3 -4 113 c-9 299 -10 313 -26 344 -48
92 -187 129 -315 85z m158 -345 c0 -72 -80 -115 -125 -66 -39 43 10 99 88 100
35 0 37 -1 37 -34z"/>
<path d="M3185 4106 c-34 -15 -55 -37 -78 -81 l-16 -30 -1 58 0 57 -90 0 -90
0 0 -275 0 -275 89 0 89 0 4 153 c4 160 11 190 57 231 12 11 41 21 71 24 l50
5 0 67 c0 62 -2 68 -22 74 -29 7 -28 8 -63 -8z"/>
<path d="M3596 4106 c-22 -8 -43 -21 -47 -28 -4 -7 -15 -22 -23 -33 -15 -19
-15 -18 -16 23 l0 42 -90 0 -90 0 0 -268 0 -269 -197 -57 c-292 -85 -433 -157
-554 -282 -70 -73 -132 -171 -170 -269 -19 -49 -23 -80 -23 -170 -1 -104 1
-114 31 -177 52 -111 113 -188 113 -145 0 26 70 170 120 249 142 223 312 376
656 591 49 31 123 84 163 117 40 34 65 50 56 37 -18 -29 -61 -65 -255 -217
-269 -211 -399 -343 -514 -525 -94 -149 -189 -357 -250 -549 -17 -55 -36 -101
-42 -103 -6 -2 -47 38 -91 89 -110 127 -247 257 -319 303 -151 97 -335 165
-519 190 l-90 13 90 1 c209 2 497 -100 662 -235 23 -19 44 -34 48 -34 14 0 -8
97 -32 142 -42 78 -148 148 -278 183 -82 22 -307 31 -420 16 -76 -10 -253 -48
-263 -57 -2 -1 24 -56 58 -123 133 -261 281 -395 483 -438 135 -28 234 -3 335
87 31 27 58 50 61 50 4 0 27 -29 53 -63 92 -122 133 -250 126 -392 l-3 -60 65
-12 c36 -7 131 -12 212 -13 l148 0 6 28 c15 69 37 121 64 153 l29 34 48 -49
c67 -69 139 -100 228 -100 61 0 80 4 145 37 100 49 253 140 257 153 4 13 -136
123 -192 151 -84 43 -256 57 -349 29 -56 -17 -121 -58 -136 -85 -10 -20 -9
-20 47 1 84 30 260 36 356 13 40 -10 92 -28 117 -42 25 -13 37 -22 26 -18 -56
17 -201 35 -282 35 -193 0 -298 -46 -479 -211 -29 -27 -55 -49 -58 -49 -16 0
-30 83 -34 212 -5 139 -4 152 21 230 14 46 29 88 33 95 6 8 28 4 83 -14 111
-38 280 -44 370 -13 364 122 555 487 596 1138 l7 112 78 0 77 0 4 189 c3 174
5 192 24 218 29 39 88 40 116 2 18 -24 21 -48 26 -218 l5 -191 84 0 84 0 -3
228 c-3 219 -4 228 -26 260 -34 46 -77 66 -147 66 -75 1 -113 -15 -144 -59
-13 -19 -26 -35 -30 -35 -3 0 -13 13 -23 29 -32 58 -143 86 -222 57z m52 -131
c15 -19 21 -48 27 -126 6 -91 5 -104 -12 -127 -17 -23 -126 -92 -145 -92 -12
0 -10 259 2 299 14 48 38 71 76 71 23 0 38 -7 52 -25z"/>
</g>
</svg>
